<svg version="1.1" id="Layer_1" xmlns="http://www.w3.org/2000/svg" xmlns:xlink="http://www.w3.org/1999/xlink" x="0px" y="0px"
	 width="100%" viewBox="0 0 128 128" enable-background="new 0 0 128 128" xml:space="preserve">
<path fill="#638BAA" opacity="1.000000" stroke="none" 
	d="
M1.000000,47.000000 
	C1.000000,31.333334 1.000000,16.166666 1.000000,1.000000 
	C43.666668,1.000000 86.333336,1.000000 129.000000,1.000000 
	C129.000000,43.666668 129.000000,86.333336 129.000000,129.000000 
	C86.333336,129.000000 43.666668,129.000000 1.000000,129.000000 
	C1.000000,101.833336 1.000000,74.666664 1.000000,47.000000 
M20.423763,20.105986 
	C24.311882,26.234135 28.200001,32.362286 32.155590,38.596779 
	C36.446274,34.761333 37.138390,31.352631 33.882385,26.930073 
	C30.630228,22.512733 28.100374,17.563616 24.981321,12.396069 
	C35.706024,12.396069 45.255920,12.396069 55.584736,12.396069 
	C54.374905,14.577082 53.536095,16.149178 52.642998,17.689802 
	C45.373203,30.230412 38.048725,42.739674 30.853266,55.322731 
	C29.380928,57.897484 26.125717,60.714436 29.235958,63.758030 
	C32.741692,67.188644 35.336346,63.169544 37.802322,61.499184 
	C55.598675,49.444557 73.270401,37.206013 90.997131,25.048370 
	C92.362877,24.111687 93.847282,23.348007 95.276535,22.503914 
	C95.529800,22.826054 95.783066,23.148193 96.036331,23.470335 
	C85.399414,40.451447 74.762505,57.432556 63.717155,75.065704 
	C60.115868,69.344269 57.054852,64.481171 53.796463,59.304508 
	C51.455566,60.915462 49.732262,62.101402 47.597256,63.570667 
	C51.394695,69.703529 54.958828,75.498238 58.562027,81.268555 
	C62.664948,87.839157 65.037300,87.835426 69.143105,81.211807 
	C81.784149,60.818840 94.400482,40.410564 107.027283,20.008770 
	C108.868698,17.033503 111.000938,14.190804 112.433075,11.030484 
	C113.107010,9.543311 113.134132,6.655934 112.198303,5.835140 
	C111.103607,4.875012 108.591637,5.192893 106.786621,5.499199 
	C105.581078,5.703778 104.520638,6.832801 103.421906,7.586936 
	C85.699768,19.750856 67.984207,31.924362 50.258671,44.083321 
	C48.858196,45.043991 47.395157,45.913448 45.961197,46.825298 
	C46.007313,44.398064 46.823662,42.830185 47.698647,41.295742 
	C53.310612,31.454111 59.039593,21.677242 64.509239,11.757305 
	C67.000275,7.239481 65.771965,4.541064 61.134232,4.475194 
	C46.972980,4.274064 32.804947,4.281722 18.643902,4.495780 
	C14.329617,4.560994 12.910810,7.562405 15.000884,11.443542 
	C16.498131,14.223839 18.346598,16.814999 20.423763,20.105986 
M120.645523,99.238571 
	C120.549049,95.897385 120.452576,92.556198 120.356110,89.215019 
	C119.855957,89.195160 119.355804,89.175308 118.855652,89.155457 
	C117.732742,90.375923 116.609825,91.596397 115.478249,92.826279 
	C114.129135,91.385582 113.064278,90.248428 111.434479,88.507988 
	C111.434479,92.961250 111.434479,96.524391 111.434479,100.087524 
	C111.833008,100.104782 112.231544,100.122040 112.630074,100.139297 
	C112.855301,98.729103 113.080528,97.318916 113.213768,96.484703 
	C114.960434,96.484703 116.444672,96.484703 116.861588,96.484703 
	C118.291977,97.886292 119.288231,98.862488 120.645523,99.238571 
M39.104206,91.209244 
	C39.083054,92.365967 39.293842,93.590782 38.979519,94.661438 
	C38.621132,95.882164 37.794666,96.965469 37.171627,98.108498 
	C36.494728,96.988472 35.510628,95.943489 35.214294,94.730492 
	C34.789795,92.992874 34.867565,91.132553 34.730877,89.324623 
	C34.224564,89.337608 33.718254,89.350594 33.211941,89.363571 
	C33.058285,91.383354 32.391750,93.542564 32.892467,95.384453 
	C33.413025,97.299339 34.726555,99.671242 36.336502,100.377815 
	C37.386826,100.838791 40.771111,98.919174 41.018654,97.656090 
	C41.522766,95.083839 40.612217,92.234337 40.284554,89.499069 
	C39.932907,89.810127 39.581257,90.121185 39.104206,91.209244 
M99.024506,92.820358 
	C98.832550,91.669563 98.640594,90.518776 98.448647,89.367981 
	C96.653221,93.040245 95.200890,96.849007 98.575722,99.767189 
	C99.571075,100.627869 102.964760,100.398010 103.826958,99.413490 
	C106.398033,96.477676 105.804688,92.885048 104.025604,89.474976 
	C103.320107,90.775597 103.365334,92.182503 102.967842,93.450645 
	C102.452209,95.095711 101.584068,96.630295 100.867668,98.212433 
	C100.254120,96.696381 99.640579,95.180328 99.024506,92.820358 
M84.503510,99.888176 
	C86.852013,99.458023 90.493576,99.810738 91.314087,98.455490 
	C94.123863,93.814529 87.508286,94.685730 86.252289,91.681801 
	C88.047943,91.448738 89.444336,91.267494 90.840736,91.086250 
	C90.713936,90.443710 90.587143,89.801178 90.460350,89.158638 
	C88.465263,89.660065 85.449425,89.521255 84.660446,90.779175 
	C81.949837,95.100830 87.030098,95.288773 89.599403,97.362717 
	C87.334084,98.118553 85.738525,98.650925 84.503510,99.888176 
M12.429950,95.918556 
	C13.124564,96.375496 13.819179,96.832436 15.442471,97.900284 
	C12.556866,98.221481 10.838470,98.412766 9.120076,98.604042 
	C9.201592,99.251564 9.283108,99.899086 9.364624,100.546616 
	C11.612561,100.155060 14.826909,100.565872 15.936605,99.229294 
	C20.133801,94.173965 12.722266,94.664177 11.358873,91.451950 
	C13.199976,91.451950 14.511755,91.451950 16.365988,91.451950 
	C14.192387,88.064362 11.792712,88.468117 9.987116,90.373627 
	C7.815572,92.665344 9.110809,94.577827 12.429950,95.918556 
M50.164875,89.060158 
	C49.102543,89.909988 47.266094,90.648026 47.124176,91.630775 
	C46.711594,94.487770 46.977875,97.442802 46.977875,100.337471 
	C51.348736,101.130974 54.490047,100.502350 55.592411,96.516983 
	C56.661556,92.651718 54.888206,90.124214 50.164875,89.060158 
M63.218700,99.624535 
	C63.893929,99.641647 65.098236,99.842560 65.165642,99.648521 
	C66.324440,96.312775 67.342957,92.928307 68.392242,89.554520 
	C67.877052,89.095711 67.361862,88.636902 66.846664,88.178093 
	C66.135811,89.736206 65.424957,91.294327 64.191124,93.998756 
	C63.095455,91.414726 62.435444,89.858162 61.775433,88.301590 
	C61.288898,88.766937 60.802364,89.232292 60.315826,89.697639 
	C61.228119,92.776039 62.140408,95.854446 63.218700,99.624535 
M25.428621,100.009941 
	C26.062584,96.582657 26.696545,93.155365 27.350790,89.618423 
	C25.848539,89.618423 23.591169,89.618423 21.738720,89.618423 
	C22.372551,91.925980 22.879456,93.818634 23.414263,95.703384 
	C23.833313,97.180176 24.286909,98.647163 25.428621,100.009941 
z"/>
<path fill="#15269D" opacity="1.000000" stroke="none" 
	d="
M20.231064,19.798264 
	C18.346598,16.814999 16.498131,14.223839 15.000884,11.443542 
	C12.910810,7.562405 14.329617,4.560994 18.643902,4.495780 
	C32.804947,4.281722 46.972980,4.274064 61.134232,4.475194 
	C65.771965,4.541064 67.000275,7.239481 64.509239,11.757305 
	C59.039593,21.677242 53.310612,31.454111 47.698647,41.295742 
	C46.823662,42.830185 46.007313,44.398064 45.961197,46.825298 
	C47.395157,45.913448 48.858196,45.043991 50.258671,44.083321 
	C67.984207,31.924362 85.699768,19.750856 103.421906,7.586936 
	C104.520638,6.832801 105.581078,5.703778 106.786621,5.499199 
	C108.591637,5.192893 111.103607,4.875012 112.198303,5.835140 
	C113.134132,6.655934 113.107010,9.543311 112.433075,11.030484 
	C111.000938,14.190804 108.868698,17.033503 107.027283,20.008770 
	C94.400482,40.410564 81.784149,60.818840 69.143105,81.211807 
	C65.037300,87.835426 62.664948,87.839157 58.562027,81.268555 
	C54.958828,75.498238 51.394695,69.703529 47.597256,63.570667 
	C49.732262,62.101402 51.455566,60.915462 53.796463,59.304508 
	C57.054852,64.481171 60.115868,69.344269 63.717155,75.065704 
	C74.762505,57.432556 85.399414,40.451447 96.036331,23.470335 
	C95.783066,23.148193 95.529800,22.826054 95.276535,22.503914 
	C93.847282,23.348007 92.362877,24.111687 90.997131,25.048370 
	C73.270401,37.206013 55.598675,49.444557 37.802322,61.499184 
	C35.336346,63.169544 32.741692,67.188644 29.235958,63.758030 
	C26.125717,60.714436 29.380928,57.897484 30.853266,55.322731 
	C38.048725,42.739674 45.373203,30.230412 52.642998,17.689802 
	C53.536095,16.149178 54.374905,14.577082 55.584736,12.396069 
	C45.255920,12.396069 35.706024,12.396069 24.981321,12.396069 
	C28.100374,17.563616 30.630228,22.512733 33.882385,26.930073 
	C37.138390,31.352631 36.446274,34.761333 32.155590,38.596779 
	C28.200001,32.362286 24.311882,26.234135 20.231064,19.798264 
z"/>
<path fill="#151F44" opacity="1.000000" stroke="none" 
	d="
M120.465004,99.538620 
	C119.288231,98.862488 118.291977,97.886292 116.861588,96.484703 
	C116.444672,96.484703 114.960434,96.484703 113.213768,96.484703 
	C113.080528,97.318916 112.855301,98.729103 112.630074,100.139297 
	C112.231544,100.122040 111.833008,100.104782 111.434479,100.087524 
	C111.434479,96.524391 111.434479,92.961250 111.434479,88.507988 
	C113.064278,90.248428 114.129135,91.385582 115.478249,92.826279 
	C116.609825,91.596397 117.732742,90.375923 118.855652,89.155457 
	C119.355804,89.175308 119.855957,89.195160 120.356110,89.215019 
	C120.452576,92.556198 120.549049,95.897385 120.465004,99.538620 
z"/>
<path fill="#131D42" opacity="1.000000" stroke="none" 
	d="
M39.166908,90.820740 
	C39.581257,90.121185 39.932907,89.810127 40.284554,89.499069 
	C40.612217,92.234337 41.522766,95.083839 41.018654,97.656090 
	C40.771111,98.919174 37.386826,100.838791 36.336502,100.377815 
	C34.726555,99.671242 33.413025,97.299339 32.892467,95.384453 
	C32.391750,93.542564 33.058285,91.383354 33.211941,89.363571 
	C33.718254,89.350594 34.224564,89.337608 34.730877,89.324623 
	C34.867565,91.132553 34.789795,92.992874 35.214294,94.730492 
	C35.510628,95.943489 36.494728,96.988472 37.171627,98.108498 
	C37.794666,96.965469 38.621132,95.882164 38.979519,94.661438 
	C39.293842,93.590782 39.083054,92.365967 39.166908,90.820740 
z"/>
<path fill="#0C143A" opacity="1.000000" stroke="none" 
	d="
M99.025772,93.242317 
	C99.640579,95.180328 100.254120,96.696381 100.867668,98.212433 
	C101.584068,96.630295 102.452209,95.095711 102.967842,93.450645 
	C103.365334,92.182503 103.320107,90.775597 104.025604,89.474976 
	C105.804688,92.885048 106.398033,96.477676 103.826958,99.413490 
	C102.964760,100.398010 99.571075,100.627869 98.575722,99.767189 
	C95.200890,96.849007 96.653221,93.040245 98.448647,89.367981 
	C98.640594,90.518776 98.832550,91.669563 99.025772,93.242317 
z"/>
<path fill="#101A3F" opacity="1.000000" stroke="none" 
	d="
M84.323235,99.535736 
	C85.738525,98.650925 87.334084,98.118553 89.599403,97.362717 
	C87.030098,95.288773 81.949837,95.100830 84.660446,90.779175 
	C85.449425,89.521255 88.465263,89.660065 90.460350,89.158638 
	C90.587143,89.801178 90.713936,90.443710 90.840736,91.086250 
	C89.444336,91.267494 88.047943,91.448738 86.252289,91.681801 
	C87.508286,94.685730 94.123863,93.814529 91.314087,98.455490 
	C90.493576,99.810738 86.852013,99.458023 84.323235,99.535736 
z"/>
<path fill="#0F173D" opacity="1.000000" stroke="none" 
	d="
M12.065516,95.824890 
	C9.110809,94.577827 7.815572,92.665344 9.987116,90.373627 
	C11.792712,88.468117 14.192387,88.064362 16.365988,91.451950 
	C14.511755,91.451950 13.199976,91.451950 11.358873,91.451950 
	C12.722266,94.664177 20.133801,94.173965 15.936605,99.229294 
	C14.826909,100.565872 11.612561,100.155060 9.364624,100.546616 
	C9.283108,99.899086 9.201592,99.251564 9.120076,98.604042 
	C10.838470,98.412766 12.556866,98.221481 15.442471,97.900284 
	C13.819179,96.832436 13.124564,96.375496 12.065516,95.824890 
z"/>
<path fill="#0E163B" opacity="1.000000" stroke="none" 
	d="
M50.574070,89.103058 
	C54.888206,90.124214 56.661556,92.651718 55.592411,96.516983 
	C54.490047,100.502350 51.348736,101.130974 46.977875,100.337471 
	C46.977875,97.442802 46.711594,94.487770 47.124176,91.630775 
	C47.266094,90.648026 49.102543,89.909988 50.574070,89.103058 
M53.462280,95.339127 
	C52.565872,93.841316 51.669464,92.343506 50.773056,90.845695 
	C50.227051,91.100563 49.681042,91.355431 49.135036,91.610298 
	C49.241096,93.915405 49.347160,96.220520 49.453220,98.525635 
	C49.867840,98.676178 50.282455,98.826729 50.697075,98.977280 
	C51.575893,97.998276 52.454716,97.019264 53.462280,95.339127 
z"/>
<path fill="#172347" opacity="1.000000" stroke="none" 
	d="
M63.135696,99.278687 
	C62.140408,95.854446 61.228119,92.776039 60.315826,89.697639 
	C60.802364,89.232292 61.288898,88.766937 61.775433,88.301590 
	C62.435444,89.858162 63.095455,91.414726 64.191124,93.998756 
	C65.424957,91.294327 66.135811,89.736206 66.846664,88.178093 
	C67.361862,88.636902 67.877052,89.095711 68.392242,89.554520 
	C67.342957,92.928307 66.324440,96.312775 65.165642,99.648521 
	C65.098236,99.842560 63.893929,99.641647 63.135696,99.278687 
z"/>
<path fill="#111A3F" opacity="1.000000" stroke="none" 
	d="
M25.076889,100.064224 
	C24.286909,98.647163 23.833313,97.180176 23.414263,95.703384 
	C22.879456,93.818634 22.372551,91.925980 21.738720,89.618423 
	C23.591169,89.618423 25.848539,89.618423 27.350790,89.618423 
	C26.696545,93.155365 26.062584,96.582657 25.076889,100.064224 
z"/>
<path fill="#577A9A" opacity="1.000000" stroke="none" 
	d="
M53.397907,95.689697 
	C52.454716,97.019264 51.575893,97.998276 50.697075,98.977280 
	C50.282455,98.826729 49.867840,98.676178 49.453220,98.525635 
	C49.347160,96.220520 49.241096,93.915405 49.135036,91.610298 
	C49.681042,91.355431 50.227051,91.100563 50.773056,90.845695 
	C51.669464,92.343506 52.565872,93.841316 53.397907,95.689697 
z"/>
</svg>